<?xml version="1.0" standalone="no"?>
<!DOCTYPE svg PUBLIC "-//W3C//DTD SVG 20010904//EN"
 "http://www.w3.org/TR/2001/REC-SVG-20010904/DTD/svg10.dtd">
<svg version="1.0" xmlns="http://www.w3.org/2000/svg"
 width="604.000000pt" height="491.000000pt" viewBox="0 0 604.000000 491.000000"
 preserveAspectRatio="xMidYMid meet">

<g transform="translate(0.000000,491.000000) scale(0.100000,-0.100000)"
fill="#000000" stroke="none">
<path d="M2110 4872 c-38 -19 -56 -55 -47 -93 4 -13 25 -49 48 -79 70 -93 69
-84 69 -439 l0 -320 -56 -128 c-49 -114 -348 -712 -810 -1618 -300 -590 -368
-770 -349 -922 l6 -53 -485 0 -486 0 0 -605 0 -605 3015 0 3015 0 -2 603 -3
602 -542 3 -543 2 0 83 c0 99 -25 210 -76 332 -20 50 -170 353 -332 675 -530
1049 -721 1433 -766 1540 l-45 105 2 315 c2 309 2 316 25 359 13 25 39 62 57
84 43 50 52 89 30 123 -36 55 -18 54 -887 54 -745 0 -806 -1 -838 -18z m1360
-19 c14 -3 31 -5 39 -4 24 4 41 -8 35 -24 -4 -9 -13 -14 -20 -11 -8 3 -14 -1
-14 -10 0 -10 6 -14 14 -11 8 3 20 -1 27 -10 11 -12 11 -17 -2 -27 -15 -11
-18 -53 -5 -74 4 -6 0 -25 -9 -41 -21 -41 -20 -41 24 -41 22 0 43 -4 46 -10 4
-6 -13 -10 -44 -10 -28 0 -51 -4 -51 -10 0 -5 3 -9 8 -9 24 4 42 -3 42 -17 0
-10 -6 -14 -15 -11 -21 9 -31 -14 -12 -28 19 -14 12 -25 -15 -25 -16 0 -16 -2
4 -22 l21 -21 -21 -8 c-25 -10 -29 -25 -7 -27 51 -5 68 -3 76 9 7 11 9 11 9
-3 0 -40 -32 -67 -42 -36 -5 15 -28 1 -28 -18 0 -10 12 -14 45 -14 43 0 45 -1
33 -20 -10 -17 -14 -18 -16 -5 -4 17 -53 20 -87 5 -18 -8 -17 -9 8 -9 32 -1
37 -26 10 -47 -24 -17 -14 -24 35 -27 32 -1 42 -6 42 -19 0 -20 -16 -25 -22
-7 -2 7 -17 8 -41 4 -31 -6 -35 -9 -23 -19 15 -11 18 -77 4 -92 -4 -3 -1 -15
5 -26 9 -16 9 -22 0 -25 -21 -8 -15 -31 10 -36 l22 -4 -22 -8 c-13 -4 -20 -11
-17 -16 3 -5 -3 -9 -12 -9 -10 0 -15 -3 -11 -6 3 -4 24 -6 47 -6 44 1 49 -7
23 -34 -16 -16 -18 -16 -21 -1 -2 9 -9 14 -17 11 -23 -9 -4 -34 26 -34 32 0
40 -23 12 -34 -15 -6 -15 -8 2 -19 15 -12 16 -15 2 -29 -11 -11 -13 -18 -5
-26 12 -12 4 -42 -12 -42 -6 0 -10 29 -10 71 0 59 -2 69 -13 60 -8 -6 -17 -8
-20 -4 -4 3 -7 1 -7 -5 0 -6 8 -15 17 -21 16 -9 16 -11 -2 -31 -11 -12 -15
-24 -10 -28 16 -11 15 -44 -1 -38 -7 3 -16 1 -19 -4 -4 -6 17 -10 51 -10 l57
0 -21 -23 c-15 -16 -18 -27 -12 -37 5 -8 7 -23 4 -33 -5 -15 -1 -18 18 -15 17
2 23 9 23 30 1 26 11 46 18 37 2 -2 2 -24 -1 -48 -4 -41 -6 -43 -32 -37 -39 7
-61 -18 -34 -39 17 -12 17 -14 3 -20 -14 -5 -15 -14 -8 -52 6 -31 5 -50 -2
-59 -13 -16 -4 -34 19 -34 15 -1 15 -2 -2 -15 -25 -19 -31 -84 -9 -92 12 -5 9
-9 -13 -19 -16 -7 -23 -13 -16 -13 13 -1 17 -41 3 -41 -4 0 -6 -11 -3 -25 2
-15 0 -25 -7 -25 -6 0 -11 -4 -11 -10 0 -6 33 -10 78 -11 l77 -1 -60 -12 c-71
-14 -86 -22 -78 -41 6 -17 48 -20 58 -5 3 5 12 7 20 4 13 -5 13 -8 0 -21 -8
-8 -19 -11 -25 -8 -18 11 -72 -5 -62 -18 4 -7 9 -25 10 -41 3 -39 7 -42 37
-26 14 7 28 11 31 7 12 -12 -6 -24 -43 -30 -37 -6 -38 -8 -38 -46 0 -46 12
-63 26 -38 6 9 17 17 24 17 17 0 20 -26 5 -35 -15 -9 -12 -25 5 -25 20 0 19
-10 -2 -26 -18 -13 -53 -19 -53 -8 0 3 7 12 16 21 20 21 3 39 -23 24 -17 -10
-17 -10 0 -11 17 0 17 -1 2 -17 -16 -15 -15 -18 15 -33 27 -14 29 -18 16 -29
-10 -8 -20 -9 -33 -3 -10 6 -43 13 -74 17 -61 8 -80 1 -136 -44 -18 -14 -57
-46 -88 -71 -31 -25 -61 -52 -65 -61 -6 -10 0 -44 16 -95 14 -43 29 -91 34
-106 8 -26 3 -32 -72 -91 l-80 -64 -112 28 c-61 16 -123 29 -137 29 -19 0 -59
-26 -132 -84 -57 -47 -107 -91 -109 -98 -5 -13 50 -221 65 -245 4 -6 17 -13
29 -16 13 -2 78 -19 146 -36 71 -19 132 -29 144 -25 11 3 60 37 107 74 l86 68
60 -13 c33 -6 85 -20 117 -29 74 -21 107 -20 134 5 14 13 36 20 63 21 62 1 72
-16 17 -26 -16 -3 -31 -8 -35 -12 -3 -3 3 -4 14 -2 18 3 20 -3 20 -42 0 -40
-3 -45 -24 -48 -62 -9 -108 -74 -97 -135 7 -40 80 -112 103 -102 17 6 30 -24
15 -34 -11 -6 -9 -67 3 -79 3 -4 14 -7 23 -7 9 0 17 -6 16 -12 -1 -7 -2 -31
-2 -53 -2 -38 -5 -42 -49 -62 -53 -22 -78 -25 -138 -11 -101 23 -182 -59 -145
-147 39 -93 199 -90 230 5 8 23 21 37 43 46 18 7 36 15 40 17 5 2 7 -2 6 -9
-1 -8 1 -22 5 -31 4 -9 3 -25 -3 -37 -15 -28 -14 -29 17 -34 25 -4 26 -5 5
-12 -16 -5 -22 -17 -25 -48 -3 -23 -1 -43 4 -45 17 -7 7 -22 -14 -22 -16 0
-19 -3 -10 -9 15 -9 7 -76 -11 -99 -10 -13 -9 -13 80 -16 70 -1 80 -16 12 -16
-57 0 -94 -17 -81 -36 10 -16 52 -28 52 -15 0 6 10 11 21 11 18 0 19 -2 9 -15
-8 -9 -30 -15 -59 -15 -40 -1 -44 -2 -29 -14 16 -12 11 -14 -40 -20 -338 -37
-1041 -25 -1379 23 -533 77 -837 177 -1006 332 -75 68 -97 117 -97 213 1 158
51 278 428 1026 173 344 399 792 502 995 102 204 209 425 238 492 l52 121 0
315 c0 352 1 343 -73 443 -24 32 -47 69 -50 82 -8 32 22 63 69 72 47 8 1268 2
1304 -7z m118 -154 c-17 -11 -22 -4 -13 18 14 31 11 92 -4 98 -11 4 -10 8 5
20 18 13 19 10 22 -57 2 -50 -1 -74 -10 -79z m72 121 c0 -5 -7 -10 -15 -10 -8
0 -15 5 -15 10 0 6 7 10 15 10 8 0 15 -4 15 -10z m-56 -155 c-7 -17 -20 -20
-28 -6 -7 10 3 21 20 21 8 0 11 -6 8 -15z m53 -7 c-3 -8 -6 -5 -6 6 -1 11 2
17 5 13 3 -3 4 -12 1 -19z m-62 -38 c-3 -5 -10 -10 -16 -10 -5 0 -9 5 -9 10 0
6 7 10 16 10 8 0 12 -4 9 -10z m-4 -110 c-7 -3 -9 -14 -5 -23 4 -12 1 -17 -10
-17 -18 0 -20 12 -7 38 5 9 13 26 17 37 7 19 8 19 12 -4 2 -13 -1 -27 -7 -31z
m79 -14 c0 -2 -9 -6 -20 -9 -11 -3 -20 -1 -20 4 0 5 9 9 20 9 11 0 20 -2 20
-4z m-70 -56 c0 -5 -9 -10 -20 -10 -11 0 -20 5 -20 10 0 6 9 10 20 10 11 0 20
-4 20 -10z m-2 -162 c-7 -19 -38 -22 -38 -4 0 10 9 16 21 16 12 0 19 -5 17
-12z m67 -8 c-3 -5 -11 -10 -16 -10 -6 0 -7 5 -4 10 3 6 11 10 16 10 6 0 7 -4
4 -10z m-65 -104 c0 -14 -29 -31 -38 -22 -2 3 -2 12 1 21 8 19 37 20 37 1z
m57 -18 c-3 -7 -5 -2 -5 12 0 14 2 19 5 13 2 -7 2 -19 0 -25z m-62 -28 c3 -5
1 -10 -5 -10 -6 0 -10 -11 -8 -24 3 -23 -16 -56 -33 -56 -13 0 -11 37 1 45 6
4 10 14 9 23 -1 10 -1 20 0 25 2 11 29 9 36 -3z m65 0 c0 -5 -9 -10 -21 -10
-11 0 -17 5 -14 10 3 6 13 10 21 10 8 0 14 -4 14 -10z m10 -57 c-8 -3 -21 -10
-27 -16 -9 -7 -13 -5 -13 7 0 11 8 16 28 15 15 0 21 -3 12 -6z m-90 -63 c0
-11 -4 -20 -10 -20 -5 0 -10 9 -10 20 0 11 5 20 10 20 6 0 10 -9 10 -20z m55
1 c-3 -6 -11 -11 -17 -11 -6 0 -6 6 2 15 14 17 26 13 15 -4z m44 -45 c-12 -10
-59 -15 -59 -6 0 5 14 10 32 10 17 0 29 -2 27 -4z m-29 -56 c0 -5 -9 -10 -20
-10 -11 0 -20 5 -20 10 0 6 9 10 20 10 11 0 20 -4 20 -10z m-7 -57 c-7 -2 -19
-2 -25 0 -7 3 -2 5 12 5 14 0 19 -2 13 -5z m-18 -43 c3 -5 -1 -10 -9 -10 -9 0
-16 5 -16 10 0 6 4 10 9 10 6 0 13 -4 16 -10z m5 -60 c0 -5 -7 -10 -16 -10 -8
0 -12 5 -9 10 3 6 10 10 16 10 5 0 9 -4 9 -10z m60 6 c0 -3 -4 -8 -10 -11 -5
-3 -10 -1 -10 4 0 6 5 11 10 11 6 0 10 -2 10 -4z m-63 -172 c-3 -3 -12 -4 -19
-1 -8 3 -5 6 6 6 11 1 17 -2 13 -5z m-6 -70 c-1 -21 -6 -41 -10 -44 -5 -3 -11
-12 -15 -20 -3 -8 -4 -1 -1 15 4 17 6 45 5 63 0 23 3 33 12 30 8 -3 12 -18 9
-44z m-10 -142 c-6 -2 -11 -28 -11 -58 0 -35 -4 -53 -10 -49 -12 8 -11 115 2
115 4 0 8 8 8 18 0 31 15 36 18 6 2 -16 -1 -30 -7 -32z m50 -109 c-8 -15 -10
-15 -11 -2 0 17 10 32 18 25 2 -3 -1 -13 -7 -23z m-54 -35 c-2 -7 -14 -12 -25
-10 -13 2 -22 -2 -22 -10 0 -10 -3 -9 -10 2 -11 17 4 30 38 30 15 0 22 -5 19
-12z m-7 -172 c-24 -22 -60 -30 -60 -12 0 15 18 23 55 25 17 1 17 -1 5 -13z
m55 -6 c-3 -5 -11 -10 -16 -10 -6 0 -7 5 -4 10 3 6 11 10 16 10 6 0 7 -4 4
-10z m-11 -45 c3 -8 1 -15 -4 -15 -6 0 -10 7 -10 15 0 8 2 15 4 15 2 0 6 -7
10 -15z m-51 -42 c8 -7 -23 -32 -40 -33 -7 0 -13 9 -13 20 0 14 7 20 23 20 13
0 27 -3 30 -7z m53 -15 c-3 -7 -7 -25 -10 -40 -4 -16 -13 -28 -21 -28 -13 0
-13 3 1 25 9 14 14 32 10 40 -3 9 0 15 9 15 8 0 13 -6 11 -12z m-6 -102 c0 -2
-9 -6 -20 -9 -11 -3 -20 -1 -20 4 0 5 9 9 20 9 11 0 20 -2 20 -4z m-40 -66 c0
-11 -4 -20 -10 -20 -5 0 -10 9 -10 20 0 11 5 20 10 20 6 0 10 -9 10 -20z m60
10 c0 -5 -5 -10 -11 -10 -5 0 -7 5 -4 10 3 6 8 10 11 10 2 0 4 -4 4 -10z
m-200 -95 c13 -1 26 -8 28 -14 3 -9 7 -9 17 -1 21 17 50 -32 36 -59 -8 -14 -8
-22 -1 -26 8 -5 8 -11 0 -20 -7 -9 -8 -15 -1 -19 14 -9 2 -36 -16 -36 -8 0
-12 -4 -9 -9 4 -5 0 -12 -6 -15 -7 -4 -2 -4 11 -2 13 3 30 -2 39 -10 13 -14
12 -16 -7 -21 -21 -5 -29 -28 -12 -35 5 -1 2 -13 -8 -25 l-18 -21 -98 19 c-54
10 -102 22 -106 26 -10 11 -49 133 -49 154 0 25 138 132 159 124 9 -4 27 -8
41 -10z m142 -67 c-9 -9 -15 -9 -24 0 -9 9 -7 12 12 12 19 0 21 -3 12 -12z
m-6 -55 c-3 -3 -13 -2 -23 2 -17 7 -17 8 2 15 19 7 34 -5 21 -17z m4 -73 c0
-31 -4 -50 -11 -50 -8 0 -10 12 -6 35 5 27 2 35 -10 35 -13 0 -13 3 -3 15 22
26 30 16 30 -35z m-172 -216 c42 -12 53 -19 49 -33 -2 -9 2 -22 10 -29 7 -7
13 -23 13 -37 0 -13 6 -25 13 -28 9 -3 8 -8 -3 -22 -13 -17 -13 -18 0 -11 8 4
6 0 -4 -8 -11 -9 -14 -16 -7 -16 7 0 -17 -25 -53 -55 l-65 -55 -103 23 -103
22 -22 65 c-35 100 -36 95 47 164 l75 62 50 -13 c27 -7 74 -20 103 -29z m-528
-70 c36 -8 77 -17 91 -20 21 -5 28 -16 43 -67 33 -116 36 -107 -43 -171 l-71
-58 -87 17 c-130 26 -126 23 -151 107 -12 41 -22 79 -22 85 0 19 143 133 160
127 8 -3 44 -12 80 -20z m760 -18 c0 -2 -9 -6 -20 -9 -11 -3 -18 -1 -14 4 5 9
34 13 34 5z m-10 -50 c0 -3 -4 -8 -10 -11 -5 -3 -10 -1 -10 4 0 6 5 11 10 11
6 0 10 -2 10 -4z m-46 -133 c-8 -31 -22 -53 -35 -53 -15 0 -10 27 6 34 8 3 15
15 15 26 0 11 5 20 10 20 6 0 8 -11 4 -27z m-74 -43 c-14 -10 -27 -16 -30 -13
-6 6 30 33 44 33 6 0 0 -9 -14 -20z m134 5 c-4 -8 -10 -15 -15 -15 -4 0 -6 7
-3 15 4 8 10 15 15 15 4 0 6 -7 3 -15z m-64 -56 c0 -11 -4 -17 -10 -14 -5 3
-10 13 -10 21 0 8 5 14 10 14 6 0 10 -9 10 -21z m0 -47 c0 -4 -6 -14 -12 -20
-10 -10 -10 -14 0 -21 20 -12 -8 -30 -33 -21 -17 7 -18 9 -4 14 11 5 14 15 11
32 -3 19 0 24 17 24 11 0 21 -4 21 -8z m60 -21 c0 -20 -6 -30 -20 -34 -23 -6
-27 8 -5 17 8 3 15 15 15 26 0 11 2 20 5 20 3 0 5 -13 5 -29z m10 -86 c0 -2
-9 -3 -19 -2 -11 0 -18 5 -15 9 4 6 34 0 34 -7z m-32 -174 c35 -44 38 -51 19
-51 -19 0 -80 67 -73 79 12 18 21 13 54 -28z m-68 -61 c-4 -3 -7 -16 -6 -29 0
-13 -5 -26 -13 -29 -11 -4 -13 2 -8 27 4 18 3 30 -2 26 -5 -3 -7 5 -4 17 11
50 15 54 28 23 7 -16 10 -32 5 -35z m15 -229 c0 -11 -120 -71 -140 -71 -2 0
-5 8 -8 19 -4 15 7 23 57 44 67 27 91 29 91 8z m36 -63 c3 -36 -4 -73 -17 -85
-12 -12 -14 -12 -14 6 0 11 4 22 8 25 5 3 7 19 4 36 -2 18 0 30 7 30 6 0 11
-6 12 -12z m-1 -136 c0 -21 -26 -60 -34 -51 -6 6 21 69 30 69 2 0 4 -8 4 -18z
m-20 -102 c0 -22 -4 -40 -10 -40 -5 0 -10 18 -10 40 0 22 5 40 10 40 6 0 10
-18 10 -40z m61 -47 c-8 -15 -10 -15 -11 -2 0 17 10 32 18 25 2 -3 -1 -13 -7
-23z m1228 8 c7 -5 10 -14 6 -20 -4 -7 -1 -18 5 -26 9 -11 10 -18 1 -29 -6 -7
-9 -21 -5 -30 3 -9 1 -22 -5 -30 -8 -9 -6 -23 8 -52 10 -21 22 -54 26 -71 3
-18 11 -33 17 -33 6 0 29 15 52 33 53 43 62 48 102 57 52 12 492 -28 550 -50
30 -12 31 -27 2 -32 -17 -3 -11 -8 26 -18 29 -9 55 -25 65 -39 15 -24 15 -24
-14 -19 -30 6 -30 6 -7 -9 12 -9 22 -24 22 -34 0 -15 -5 -16 -30 -9 l-30 9 20
-26 c21 -27 19 -43 -6 -43 -11 0 -12 -4 -4 -19 16 -30 12 -38 -21 -45 -19 -3
-42 0 -60 9 -17 9 -29 11 -29 5 0 -15 -51 -12 -80 5 -41 23 -98 19 -132 -11
-60 -50 -239 -121 -279 -111 -10 3 -22 1 -25 -5 -3 -5 -15 -13 -26 -17 -19 -7
-15 -14 46 -78 61 -65 80 -103 58 -117 -5 -3 -45 28 -91 69 -45 41 -86 75 -91
75 -21 0 -216 158 -278 226 -39 42 -79 75 -95 79 -15 4 -27 13 -27 21 0 20 53
44 99 44 58 0 65 19 59 151 -5 102 -4 110 19 144 14 20 34 40 46 45 29 11 88
12 106 1z m-1273 -40 c-10 -15 -66 -19 -66 -4 0 8 13 13 36 13 19 0 33 -4 30
-9z m-396 -366 l0 -145 40 0 c37 0 42 4 80 61 47 68 52 71 109 67 l41 -3 -47
-59 c-34 -43 -44 -61 -33 -64 34 -12 60 -51 60 -92 0 -42 2 -43 58 -40 35 2
39 -6 19 -34 -9 -12 -31 -20 -65 -24 -47 -4 -54 -2 -82 26 -24 24 -30 39 -30
71 l0 41 -75 0 -75 0 0 -71 0 -70 -47 3 -48 3 -3 238 -2 237 50 0 50 0 0 -145z
m-2550 -144 c0 -128 0 -129 24 -135 14 -3 32 -3 40 0 10 4 16 1 16 -9 0 -19
-18 -34 -53 -42 -25 -7 -27 -11 -27 -62 0 -44 -5 -58 -25 -78 -23 -24 -31 -25
-135 -25 l-110 0 0 25 c0 25 1 25 85 25 l85 0 0 69 0 69 -31 -15 c-22 -11 -52
-14 -111 -11 -111 5 -118 14 -118 160 0 102 1 110 25 133 24 24 28 25 180 25
l155 0 0 -129z m260 74 c0 -30 3 -55 7 -55 3 0 32 25 64 55 59 56 82 65 122
43 30 -16 46 -39 47 -65 0 -33 12 -29 48 15 52 66 117 78 162 30 17 -19 20
-35 20 -129 l0 -107 35 5 c26 3 35 1 35 -10 0 -22 -25 -38 -68 -44 -31 -4 -44
0 -68 20 -28 24 -29 30 -34 126 l-5 101 -62 -56 -63 -56 0 -69 0 -70 -47 3
-48 3 -5 123 -5 122 -67 -61 -68 -61 0 -64 0 -64 -45 0 c-40 0 -45 3 -46 23
-4 82 -5 283 -2 290 2 4 24 7 49 7 l44 0 0 -55z m720 6 l57 -50 49 50 c45 46
52 49 98 49 l50 0 -74 -76 -75 -75 60 -55 c52 -47 77 -60 108 -55 16 2 6 -29
-15 -43 -44 -31 -79 -21 -138 39 -30 30 -59 55 -65 55 -6 0 -35 -25 -65 -55
-51 -51 -57 -55 -102 -55 -26 0 -48 3 -48 6 0 3 37 41 83 84 l82 79 -75 75
-74 76 43 0 c39 0 52 -6 101 -49z m1320 -81 l0 -130 34 0 c60 0 56 -42 -5 -55
l-29 -7 0 -79 0 -79 -50 0 -50 0 0 95 0 96 -30 -16 c-38 -20 -152 -20 -189 0
-38 19 -41 30 -41 151 0 98 2 107 25 129 24 24 28 25 180 25 l155 0 0 -130z
m-400 -245 c0 -16 -10 -17 -205 -16 -464 0 -475 1 -475 16 0 12 28 15 168 17
92 2 245 2 340 0 142 -2 172 -5 172 -17z"/>
<path d="M3507 3715 c-4 -8 -2 -17 3 -20 6 -4 10 3 10 14 0 25 -6 27 -13 6z"/>
<path d="M3522 3677 c-13 -16 -20 -83 -9 -94 4 -3 7 9 7 28 0 19 5 40 11 46 6
6 9 17 7 23 -3 9 -7 8 -16 -3z"/>
<path d="M3498 3563 c6 -2 10 -9 6 -14 -3 -5 -1 -9 4 -9 6 0 12 7 16 15 4 11
-1 15 -17 14 -12 0 -16 -3 -9 -6z"/>
<path d="M3504 3512 c-9 -5 -8 -11 2 -20 12 -11 14 -9 14 8 0 22 0 23 -16 12z"/>
<path d="M3506 3462 c-2 -4 -1 -14 5 -22 7 -12 9 -10 9 8 0 23 -5 28 -14 14z"/>
<path d="M3490 3380 c0 -6 7 -10 15 -10 8 0 15 2 15 4 0 2 -7 6 -15 10 -8 3
-15 1 -15 -4z"/>
<path d="M3501 3326 c-8 -14 -11 -29 -8 -33 4 -3 7 1 7 10 0 8 5 17 12 19 6 2
9 10 7 17 -3 8 -10 3 -18 -13z"/>
<path d="M2158 2763 c-15 -3 -41 -18 -58 -34 -24 -24 -30 -39 -30 -72 1 -65
46 -107 116 -107 37 0 46 -5 73 -39 27 -34 29 -40 15 -52 -26 -22 -45 -67 -46
-113 l0 -43 -65 -27 c-62 -26 -66 -26 -110 -11 -55 19 -92 13 -133 -21 -77
-65 -21 -184 88 -184 42 0 95 39 108 80 10 31 20 38 83 62 l71 27 36 -24 c124
-84 304 -4 304 137 0 106 -80 178 -198 178 -56 0 -62 2 -91 35 -17 20 -31 37
-31 39 0 2 5 17 11 33 8 24 7 39 -5 66 -22 53 -73 79 -138 70z m137 -210 c37
-41 42 -53 22 -53 -19 0 -80 67 -73 79 10 16 12 15 51 -26z m-50 -294 c0 -7
-31 -26 -69 -42 -55 -23 -70 -26 -77 -15 -11 18 -3 24 67 52 64 26 79 27 79 5z"/>
<path d="M1404 2020 c-36 -14 -37 -29 -5 -66 24 -27 31 -44 31 -77 0 -51 -28
-169 -80 -342 -74 -245 -75 -326 -6 -359 18 -8 60 -22 92 -30 32 -7 100 -26
151 -40 110 -32 166 -32 171 1 2 12 -4 33 -13 47 -25 37 -10 135 61 396 61
227 63 329 7 365 -14 9 -95 36 -181 60 -199 54 -203 55 -228 45z m246 -134
l85 -23 -1 -79 c-1 -56 -12 -119 -39 -219 -55 -209 -74 -296 -75 -337 0 -23
-5 -38 -12 -38 -25 0 -183 43 -197 53 -9 8 -11 24 -7 58 6 40 63 253 95 354
21 64 41 168 41 211 0 29 4 44 13 44 6 0 50 -11 97 -24z"/>
<path d="M2032 1838 c-18 -18 -15 -27 19 -65 26 -31 30 -42 28 -87 -3 -57 -30
-167 -82 -331 -41 -128 -62 -242 -53 -290 9 -44 42 -67 131 -90 39 -10 114
-31 169 -46 114 -34 133 -35 158 -13 17 16 17 18 -3 51 -27 43 -22 104 23 273
73 280 80 313 76 391 -4 88 -19 113 -77 129 -20 6 -99 28 -176 50 -146 42
-193 48 -213 28z m268 -127 l85 -27 -1 -74 c-1 -53 -16 -134 -52 -275 -27
-110 -53 -229 -57 -263 -7 -62 -8 -64 -34 -59 -68 13 -184 52 -188 64 -8 20
30 183 81 353 31 100 49 183 53 233 4 47 10 77 17 76 6 0 49 -13 96 -28z"/>
<path d="M3496 1455 c4 -8 10 -15 15 -15 4 0 6 7 3 15 -4 8 -10 15 -15 15 -4
0 -6 -7 -3 -15z"/>
<path d="M3513 1418 c3 -9 1 -19 -6 -22 -9 -3 -9 -5 0 -5 18 -1 23 13 11 29
-8 12 -9 12 -5 -2z"/>
<path d="M3500 1370 c-12 -8 -10 -10 10 -11 14 0 19 -3 13 -6 -7 -2 -13 -9
-13 -15 0 -6 6 -6 15 2 32 27 10 53 -25 30z"/>
<path d="M3505 1190 c3 -5 8 -10 11 -10 2 0 4 5 4 10 0 6 -5 10 -11 10 -5 0
-7 -4 -4 -10z"/>
<path d="M3508 1145 c-3 -14 -1 -25 3 -25 5 0 9 11 9 25 0 14 -2 25 -4 25 -2
0 -6 -11 -8 -25z"/>
<path d="M3506 1085 c-3 -8 -1 -15 4 -15 6 0 10 7 10 15 0 8 -2 15 -4 15 -2 0
-6 -7 -10 -15z"/>
<path d="M3511 1034 c0 -11 3 -14 6 -6 3 7 2 16 -1 19 -3 4 -6 -2 -5 -13z"/>
<path d="M3491 2404 c0 -11 3 -14 6 -6 3 7 2 16 -1 19 -3 4 -6 -2 -5 -13z"/>
<path d="M410 375 c0 -77 3 -105 13 -106 6 0 42 -1 80 -2 l67 -2 0 108 0 107
-80 0 -80 0 0 -105z"/>
<path d="M2710 376 l0 -104 70 -4 c39 -2 75 -1 80 0 6 2 10 49 10 108 l0 104
-80 0 -80 0 0 -104z"/>
</g>
</svg>
